<svg width="9" height="16" viewBox="0 0 9 16" fill="none" xmlns="http://www.w3.org/2000/svg">
<path d="M8 9H5.65625V16H2.53125V9H0V6.09375H2.53125V3.90625C2.53125 3.07292 2.6875 2.36458 3 1.78125C3.3125 1.19792 3.75 0.760417 4.3125 0.46875C4.89583 0.15625 5.5625 0 6.3125 0C6.64583 0 7 0.0208333 7.375 0.0625C7.75 0.0833333 8.04167 0.114583 8.25 0.15625L8.5625 0.1875V2.65625H7.3125C6.72917 2.65625 6.30208 2.8125 6.03125 3.125C5.78125 3.41667 5.65625 3.78125 5.65625 4.21875V6.09375H8.4375L8 9Z" fill="white"/>
</svg>
