<svg aria-hidden="true" style="position: absolute; width: 0; height: 0; overflow: hidden;" version="1.1" xmlns="http://www.w3.org/2000/svg" xmlns:xlink="http://www.w3.org/1999/xlink">
<defs>
<symbol id="icon-arrow" viewBox="0 0 32 32">
<path fill="#fff" style="fill: var(--color1, #fff)" d="M29.405 8.897c0.198 0.198 0.298 0.427 0.298 0.685s-0.099 0.486-0.298 0.685l-13.869 13.869c-0.198 0.198-0.427 0.298-0.684 0.298s-0.486-0.099-0.684-0.298l-13.869-13.869c-0.198-0.198-0.298-0.427-0.298-0.685s0.099-0.486 0.298-0.685l1.488-1.488c0.198-0.198 0.427-0.298 0.685-0.298s0.486 0.099 0.685 0.298l11.696 11.696 11.696-11.696c0.198-0.198 0.427-0.298 0.684-0.298s0.486 0.099 0.684 0.298l1.488 1.488z"></path>
</symbol>
<symbol id="icon-clock_contacts" viewBox="0 0 32 32">
<path d="M26.4 16c0 5.745-4.655 10.4-10.4 10.4s-10.4-4.655-10.4-10.4c0-5.745 4.655-10.4 10.4-10.4s10.4 4.655 10.4 10.4zM3.2 16c0 7.070 5.73 12.8 12.8 12.8s12.8-5.73 12.8-12.8c0-7.070-5.73-12.8-12.8-12.8s-12.8 5.73-12.8 12.8zM14.8 9.2v6.8c0 0.4 0.2 0.775 0.535 1l4.8 3.2c0.55 0.37 1.295 0.22 1.665-0.335s0.22-1.295-0.335-1.665l-4.265-2.84v-6.16c0-0.665-0.535-1.2-1.2-1.2s-1.2 0.535-1.2 1.2z"></path>
</symbol>
<symbol id="icon-facebook" viewBox="0 0 32 32">
<path fill="#fff" style="fill: var(--color1, #fff)" d="M23 18h-4.688v14h-6.25v-14h-5.063v-5.813h5.063v-4.375c0-1.667 0.313-3.083 0.938-4.25s1.5-2.042 2.625-2.625c1.167-0.625 2.5-0.938 4-0.938 0.667 0 1.375 0.042 2.125 0.125 0.75 0.042 1.333 0.104 1.75 0.188l0.625 0.063v4.938h-2.5c-1.167 0-2.021 0.313-2.563 0.938-0.5 0.583-0.75 1.313-0.75 2.188v3.75h5.563l-0.875 5.813z"></path>
</symbol>
<symbol id="icon-inbox_contacts" viewBox="0 0 32 32">
<path d="M7.79 4.8c-1.595 0-2.945 1.17-3.17 2.745l-1.39 9.715c-0.020 0.15-0.030 0.3-0.030 0.455v6.285c0 1.765 1.435 3.2 3.2 3.2h19.2c1.765 0 3.2-1.435 3.2-3.2v-6.285c0-0.15-0.010-0.305-0.030-0.455l-1.39-9.715c-0.225-1.575-1.575-2.745-3.17-2.745h-16.42zM7.79 8h16.425l1.37 9.6h-2.995c-0.605 0-1.16 0.34-1.43 0.885l-0.715 1.43c-0.27 0.54-0.825 0.885-1.43 0.885h-6.020c-0.605 0-1.16-0.34-1.43-0.885l-0.715-1.43c-0.27-0.54-0.825-0.885-1.43-0.885h-3.005l1.375-9.6z"></path>
</symbol>
<symbol id="icon-instagram" viewBox="0 0 32 32">
<path fill="#fff" style="fill: var(--color1, #fff)" d="M10.143 10.214c1.619-1.619 3.571-2.429 5.857-2.429s4.214 0.81 5.786 2.429c1.619 1.571 2.429 3.5 2.429 5.786s-0.81 4.238-2.429 5.857c-1.571 1.571-3.5 2.357-5.786 2.357s-4.238-0.786-5.857-2.357c-1.571-1.619-2.357-3.571-2.357-5.857s0.786-4.214 2.357-5.786zM12.214 19.786c1.048 1.048 2.31 1.571 3.786 1.571s2.738-0.524 3.786-1.571c1.048-1.048 1.571-2.31 1.571-3.786s-0.524-2.738-1.571-3.786c-1.048-1.048-2.31-1.571-3.786-1.571s-2.738 0.524-3.786 1.571c-1.048 1.048-1.571 2.31-1.571 3.786s0.524 2.738 1.571 3.786zM25.857 6.143c0.381 0.333 0.571 0.762 0.571 1.286s-0.19 0.976-0.571 1.357c-0.333 0.381-0.762 0.571-1.286 0.571s-0.976-0.19-1.357-0.571c-0.381-0.381-0.571-0.833-0.571-1.357s0.19-0.952 0.571-1.286c0.381-0.381 0.833-0.571 1.357-0.571s0.952 0.19 1.286 0.571zM31.929 9.429c0.048 1.286 0.071 3.476 0.071 6.571s-0.024 5.286-0.071 6.571c-0.143 2.905-1.024 5.167-2.643 6.786-1.571 1.571-3.81 2.405-6.714 2.5-1.286 0.095-3.476 0.143-6.571 0.143s-5.286-0.048-6.571-0.143c-2.905-0.143-5.143-1-6.714-2.571-0.619-0.571-1.119-1.238-1.5-2s-0.667-1.5-0.857-2.214c-0.143-0.715-0.214-1.548-0.214-2.5-0.095-1.286-0.143-3.476-0.143-6.571s0.048-5.31 0.143-6.643c0.143-2.857 1-5.071 2.571-6.643 1.571-1.619 3.81-2.5 6.714-2.643 1.286-0.048 3.476-0.071 6.571-0.071s5.286 0.024 6.571 0.071c2.905 0.143 5.143 1.024 6.714 2.643 1.619 1.571 2.5 3.81 2.643 6.714zM28.5 25.429c0.143-0.381 0.262-0.857 0.357-1.429 0.095-0.619 0.167-1.333 0.214-2.143 0.048-0.857 0.071-1.548 0.071-2.071s0-1.262 0-2.214c0-0.952 0-1.476 0-1.571 0-0.143 0-0.667 0-1.571 0-0.952 0-1.69 0-2.214s-0.024-1.19-0.071-2c-0.048-0.857-0.119-1.571-0.214-2.143-0.095-0.619-0.214-1.119-0.357-1.5-0.571-1.476-1.595-2.5-3.072-3.071-0.381-0.143-0.881-0.262-1.5-0.357-0.571-0.095-1.286-0.167-2.143-0.214-0.81-0.048-1.476-0.071-2-0.071-0.476 0-1.214 0-2.214 0-0.952 0-1.476 0-1.571 0s-0.619 0-1.571 0c-0.952 0-1.69 0-2.214 0s-1.214 0.024-2.071 0.071c-0.81 0.048-1.524 0.119-2.143 0.214-0.571 0.095-1.048 0.214-1.429 0.357-1.476 0.571-2.5 1.595-3.071 3.071-0.143 0.381-0.262 0.881-0.357 1.5-0.095 0.571-0.167 1.286-0.214 2.143-0.048 0.81-0.071 1.476-0.071 2 0 0.476 0 1.214 0 2.214 0 0.952 0 1.476 0 1.571 0 0.19 0 0.643 0 1.357 0 0.667 0 1.238 0 1.714 0 0.429 0 1 0 1.714 0.048 0.714 0.095 1.333 0.143 1.857 0.048 0.476 0.119 0.976 0.214 1.5s0.19 0.952 0.286 1.286c0.619 1.476 1.643 2.5 3.071 3.072 0.381 0.143 0.857 0.262 1.429 0.357 0.619 0.095 1.333 0.167 2.143 0.214 0.857 0.048 1.524 0.071 2 0.071 0.524 0 1.262 0 2.214 0 1 0 1.548 0 1.643 0 0.143 0 0.667 0 1.571 0 0.952 0 1.69 0 2.214 0s1.19-0.024 2-0.071c0.857-0.048 1.572-0.119 2.143-0.214 0.619-0.095 1.119-0.214 1.5-0.357 1.476-0.619 2.5-1.643 3.072-3.072z"></path>
</symbol>
<symbol id="icon-map_contacts" viewBox="0 0 32 32">
<path d="M6.4 12.63c0-5.21 4.3-9.43 9.6-9.43s9.6 4.22 9.6 9.43c0 5.965-6.010 13.115-8.52 15.84-0.59 0.64-1.575 0.64-2.165 0-2.51-2.725-8.52-9.875-8.52-15.84zM16 16c1.765 0 3.2-1.435 3.2-3.2s-1.435-3.2-3.2-3.2c-1.765 0-3.2 1.435-3.2 3.2s1.435 3.2 3.2 3.2z"></path>
</symbol>
<symbol id="icon-phone_contacts" viewBox="0 0 32 32">
<path d="M11.21 4.45c-0.395-0.945-1.425-1.445-2.405-1.18l-0.275 0.075c-3.23 0.88-5.99 4.010-5.185 7.82 1.855 8.75 8.74 15.635 17.49 17.49 3.815 0.81 6.94-1.955 7.82-5.185l0.075-0.275c0.27-0.985-0.235-2.015-1.175-2.405l-4.865-2.025c-0.825-0.345-1.78-0.105-2.35 0.59l-1.93 2.36c-3.515-1.745-6.345-4.665-7.97-8.25l2.21-1.8c0.695-0.565 0.93-1.52 0.59-2.35l-2.030-4.865z"></path>
</symbol>
<symbol id="icon-twitter" viewBox="0 0 32 32">
<path fill="#fff" style="fill: var(--color1, #fff)" d="M28.688 9.5c0.042 0.167 0.062 0.438 0.062 0.813 0 2.208-0.417 4.417-1.25 6.625-0.833 2.167-2.021 4.167-3.562 6-1.5 1.792-3.458 3.25-5.875 4.375s-5.083 1.688-8 1.688c-3.667 0-7.021-0.979-10.063-2.938 0.458 0.042 0.979 0.063 1.563 0.063 3.042 0 5.771-0.937 8.188-2.813-1.458 0-2.75-0.417-3.875-1.25-1.083-0.875-1.833-1.958-2.25-3.25 0.417 0.042 0.813 0.063 1.188 0.063 0.583 0 1.167-0.063 1.75-0.188-1-0.208-1.896-0.625-2.688-1.25s-1.417-1.375-1.875-2.25c-0.458-0.917-0.688-1.896-0.688-2.938v-0.125c0.917 0.542 1.896 0.833 2.938 0.875-1.958-1.333-2.938-3.167-2.938-5.5 0-1.167 0.313-2.271 0.938-3.313 1.625 2.042 3.604 3.667 5.938 4.875 2.375 1.208 4.896 1.875 7.563 2-0.083-0.5-0.125-1-0.125-1.5 0-1.792 0.625-3.333 1.875-4.625 1.292-1.292 2.833-1.938 4.625-1.938 1.917 0 3.521 0.688 4.813 2.063 1.5-0.292 2.896-0.813 4.187-1.563-0.5 1.542-1.458 2.75-2.875 3.625 1.25-0.167 2.5-0.521 3.75-1.063-0.917 1.333-2.021 2.479-3.312 3.438z"></path>
</symbol>
<symbol id="icon-zoom" viewBox="0 0 32 32">
<path fill="#fff" style="fill: var(--color1, #fff)" d="M13 24c1.445 0 2.875-0.285 4.209-0.837s2.547-1.363 3.569-2.384c1.021-1.021 1.832-2.234 2.384-3.569s0.837-2.765 0.837-4.21-0.285-2.875-0.837-4.21c-0.553-1.335-1.363-2.547-2.384-3.569s-2.234-1.832-3.569-2.384-2.765-0.837-4.21-0.837c-2.917 0-5.715 1.159-7.778 3.222s-3.222 4.861-3.222 7.778c0 2.917 1.159 5.715 3.222 7.778s4.861 3.222 7.778 3.222zM26 13c0 3.448-1.37 6.754-3.808 9.192s-5.745 3.808-9.192 3.808-6.754-1.37-9.192-3.808c-2.438-2.438-3.808-5.745-3.808-9.192s1.37-6.754 3.808-9.192c2.438-2.438 5.745-3.808 9.192-3.808s6.754 1.37 9.192 3.808c2.438 2.438 3.808 5.745 3.808 9.192z"></path>
<path fill="#fff" style="fill: var(--color1, #fff)" d="M20.688 23.484c0.060 0.080 0.124 0.156 0.196 0.23l7.7 7.7c0.375 0.375 0.884 0.586 1.414 0.586s1.039-0.21 1.415-0.585c0.375-0.375 0.586-0.884 0.586-1.414s-0.21-1.039-0.585-1.415l-7.7-7.7c-0.072-0.072-0.148-0.139-0.23-0.2-0.785 1.070-1.727 2.014-2.796 2.8v-0.002z"></path>
<path fill="#fff" style="fill: var(--color1, #fff)" d="M13 6c0.265 0 0.52 0.105 0.707 0.293s0.293 0.442 0.293 0.707v5h5c0.265 0 0.52 0.105 0.707 0.293s0.293 0.442 0.293 0.707c0 0.265-0.105 0.52-0.293 0.707s-0.442 0.293-0.707 0.293h-5v5c0 0.265-0.105 0.52-0.293 0.707s-0.442 0.293-0.707 0.293c-0.265 0-0.52-0.105-0.707-0.293s-0.293-0.442-0.293-0.707v-5h-5c-0.265 0-0.52-0.105-0.707-0.293s-0.293-0.442-0.293-0.707c0-0.265 0.105-0.52 0.293-0.707s0.442-0.293 0.707-0.293h5v-5c0-0.265 0.105-0.52 0.293-0.707s0.442-0.293 0.707-0.293z"></path>
</symbol>
</defs>
</svg>
